<svg width="810" height="1176" viewBox="0 0 810 1176" class="keymap" xmlns="http://www.w3.org/2000/svg" xmlns:xlink="http://www.w3.org/1999/xlink">
<style>/* inherit to force styles through use tags */
svg path {
    fill: inherit;
}

/* font and background color specifications */
svg.keymap {
    font-family: SFMono-Regular,Consolas,Liberation Mono,Menlo,monospace;
    font-size: 14px;
    font-kerning: normal;
    text-rendering: optimizeLegibility;
    fill: #24292e;
}

/* default key styling */
rect.key {
    fill: #f6f8fa;
}

rect.key, rect.combo {
    stroke: #c9cccf;
    stroke-width: 1;
}

/* default key side styling, only used is draw_key_sides is set */
rect.side {
    filter: brightness(90%);
}

/* color accent for combo boxes */
rect.combo, rect.combo-separate {
    fill: #cdf;
}

/* color accent for held keys */
rect.held, rect.combo.held {
    fill: #fdd;
}

/* color accent for ghost (optional) keys */
rect.ghost, rect.combo.ghost {
    stroke-dasharray: 4, 4;
    stroke-width: 2;
}

text {
    text-anchor: middle;
    dominant-baseline: middle;
}

/* styling for layer labels */
text.label {
    font-weight: bold;
    text-anchor: start;
    stroke: white;
    stroke-width: 4;
    paint-order: stroke;
}

/* styling for optional footer */
text.footer {
    text-anchor: end;
    dominant-baseline: auto;
    stroke: white;
    stroke-width: 4;
    paint-order: stroke;
}

/* styling for combo tap, and key non-tap label text */
text.combo, text.hold, text.shifted, text.left, text.right, text.tl, text.tr, text.bl, text.br {
    font-size: 11px;
}

text.hold, text.bl, text.br {
    text-anchor: middle;
    dominant-baseline: auto;
}

text.shifted, text.tl, text.tr {
    text-anchor: middle;
    dominant-baseline: hanging;
}

text.left, text.tl, text.bl {
    text-anchor: start;
}

text.right, text.tr, text.br {
    text-anchor: end;
}

text.layer-activator {
    text-decoration: underline;
}

/* styling for hold/shifted label text in combo box */
text.combo.hold, text.combo.shifted, text.combo.left, text.combo.right {
    font-size: 8px;
}

/* lighter symbol for transparent keys */
text.trans {
    fill: #7b7e81;
}

/* styling for combo dendrons */
path.combo {
    stroke-width: 1;
    stroke: gray;
    fill: none;
}

/* Start Tabler Icons Cleanup */
/* cannot use height/width with glyphs */
.icon-tabler > path {
    fill: inherit;
    stroke: inherit;
    stroke-width: 2;
}
/* hide tabler's default box */
.icon-tabler > path[stroke="none"][fill="none"] {
    visibility: hidden;
}
/* End Tabler Icons Cleanup */
</style>
<g transform="translate(30, 0)" class="layer-Base">
<text x="0" y="28" class="label" id="Base">Base:</text>
<g transform="translate(0, 56)">
<g transform="translate(30, 28)" class="key keypos-0">
<rect rx="6" ry="6" x="-28" y="-26" width="56" height="52" class="key"/>
<text x="0" y="0" class="key tap">Esc</text>
</g>
<g transform="translate(90, 28)" class="key keypos-1">
<rect rx="6" ry="6" x="-28" y="-26" width="56" height="52" class="key"/>
<text x="0" y="0" class="key tap">Q</text>
</g>
<g transform="translate(150, 28)" class="key keypos-2">
<rect rx="6" ry="6" x="-28" y="-26" width="56" height="52" class="key"/>
<text x="0" y="0" class="key tap">W</text>
</g>
<g transform="translate(210, 28)" class="key keypos-3">
<rect rx="6" ry="6" x="-28" y="-26" width="56" height="52" class="key"/>
<text x="0" y="0" class="key tap">E</text>
</g>
<g transform="translate(270, 28)" class="key keypos-4">
<rect rx="6" ry="6" x="-28" y="-26" width="56" height="52" class="key"/>
<text x="0" y="0" class="key tap">R</text>
</g>
<g transform="translate(330, 28)" class="key keypos-5">
<rect rx="6" ry="6" x="-28" y="-26" width="56" height="52" class="key"/>
<text x="0" y="0" class="key tap">T</text>
</g>
<g transform="translate(420, 28)" class="key keypos-6">
<rect rx="6" ry="6" x="-28" y="-26" width="56" height="52" class="key"/>
<text x="0" y="0" class="key tap">Y</text>
</g>
<g transform="translate(480, 28)" class="key keypos-7">
<rect rx="6" ry="6" x="-28" y="-26" width="56" height="52" class="key"/>
<text x="0" y="0" class="key tap">U</text>
</g>
<g transform="translate(540, 28)" class="key keypos-8">
<rect rx="6" ry="6" x="-28" y="-26" width="56" height="52" class="key"/>
<text x="0" y="0" class="key tap">I</text>
</g>
<g transform="translate(600, 28)" class="key keypos-9">
<rect rx="6" ry="6" x="-28" y="-26" width="56" height="52" class="key"/>
<text x="0" y="0" class="key tap">O</text>
</g>
<g transform="translate(660, 28)" class="key keypos-10">
<rect rx="6" ry="6" x="-28" y="-26" width="56" height="52" class="key"/>
<text x="0" y="0" class="key tap">P</text>
</g>
<g transform="translate(720, 28)" class="key keypos-11">
<rect rx="6" ry="6" x="-28" y="-26" width="56" height="52" class="key"/>
<text x="0" y="0" class="key tap">[</text>
</g>
<g transform="translate(30, 84)" class="key keypos-12">
<rect rx="6" ry="6" x="-28" y="-26" width="56" height="52" class="key"/>
<text x="0" y="0" class="key tap">⇥</text>
<text x="0" y="24" class="key hold">Hyper</text>
</g>
<g transform="translate(90, 84)" class="key keypos-13">
<rect rx="6" ry="6" x="-28" y="-26" width="56" height="52" class="key"/>
<text x="0" y="0" class="key tap">A</text>
<text x="0" y="24" class="key hold">⌃</text>
</g>
<g transform="translate(150, 84)" class="key keypos-14">
<rect rx="6" ry="6" x="-28" y="-26" width="56" height="52" class="key"/>
<text x="0" y="0" class="key tap">S</text>
<text x="0" y="24" class="key hold">⌥</text>
</g>
<g transform="translate(210, 84)" class="key keypos-15">
<rect rx="6" ry="6" x="-28" y="-26" width="56" height="52" class="key"/>
<text x="0" y="0" class="key tap">D</text>
<text x="0" y="24" class="key hold">⌘</text>
</g>
<g transform="translate(270, 84)" class="key keypos-16">
<rect rx="6" ry="6" x="-28" y="-26" width="56" height="52" class="key"/>
<text x="0" y="0" class="key tap">F</text>
<text x="0" y="24" class="key hold">⇧</text>
</g>
<g transform="translate(330, 84)" class="key keypos-17">
<rect rx="6" ry="6" x="-28" y="-26" width="56" height="52" class="key"/>
<text x="0" y="0" class="key tap">G</text>
</g>
<g transform="translate(420, 84)" class="key keypos-18">
<rect rx="6" ry="6" x="-28" y="-26" width="56" height="52" class="key"/>
<text x="0" y="0" class="key tap">H</text>
</g>
<g transform="translate(480, 84)" class="key keypos-19">
<rect rx="6" ry="6" x="-28" y="-26" width="56" height="52" class="key"/>
<text x="0" y="0" class="key tap">J</text>
<text x="0" y="24" class="key hold">⇧</text>
</g>
<g transform="translate(540, 84)" class="key keypos-20">
<rect rx="6" ry="6" x="-28" y="-26" width="56" height="52" class="key"/>
<text x="0" y="0" class="key tap">K</text>
<text x="0" y="24" class="key hold">⌘</text>
</g>
<g transform="translate(600, 84)" class="key keypos-21">
<rect rx="6" ry="6" x="-28" y="-26" width="56" height="52" class="key"/>
<text x="0" y="0" class="key tap">L</text>
<text x="0" y="24" class="key hold">⌥</text>
</g>
<g transform="translate(660, 84)" class="key keypos-22">
<rect rx="6" ry="6" x="-28" y="-26" width="56" height="52" class="key"/>
<text x="0" y="0" class="key tap">;</text>
<text x="0" y="24" class="key hold">⌃</text>
</g>
<g transform="translate(720, 84)" class="key keypos-23">
<rect rx="6" ry="6" x="-28" y="-26" width="56" height="52" class="key"/>
<text x="0" y="0" class="key tap">]</text>
</g>
<g transform="translate(30, 140)" class="key keypos-24">
<rect rx="6" ry="6" x="-28" y="-26" width="56" height="52" class="key"/>
<text x="0" y="0" class="key tap">⇧</text>
</g>
<g transform="translate(90, 140)" class="key keypos-25">
<rect rx="6" ry="6" x="-28" y="-26" width="56" height="52" class="key"/>
<text x="0" y="0" class="key tap">Z</text>
</g>
<g transform="translate(150, 140)" class="key keypos-26">
<rect rx="6" ry="6" x="-28" y="-26" width="56" height="52" class="key"/>
<text x="0" y="0" class="key tap">X</text>
</g>
<g transform="translate(210, 140)" class="key keypos-27">
<rect rx="6" ry="6" x="-28" y="-26" width="56" height="52" class="key"/>
<text x="0" y="0" class="key tap">C</text>
</g>
<g transform="translate(270, 140)" class="key keypos-28">
<rect rx="6" ry="6" x="-28" y="-26" width="56" height="52" class="key"/>
<text x="0" y="0" class="key tap">V</text>
</g>
<g transform="translate(330, 140)" class="key keypos-29">
<rect rx="6" ry="6" x="-28" y="-26" width="56" height="52" class="key"/>
<text x="0" y="0" class="key tap">B</text>
</g>
<g transform="translate(420, 140)" class="key keypos-30">
<rect rx="6" ry="6" x="-28" y="-26" width="56" height="52" class="key"/>
<text x="0" y="0" class="key tap">N</text>
</g>
<g transform="translate(480, 140)" class="key keypos-31">
<rect rx="6" ry="6" x="-28" y="-26" width="56" height="52" class="key"/>
<text x="0" y="0" class="key tap">M</text>
</g>
<g transform="translate(540, 140)" class="key keypos-32">
<rect rx="6" ry="6" x="-28" y="-26" width="56" height="52" class="key"/>
<text x="0" y="0" class="key tap">,</text>
</g>
<g transform="translate(600, 140)" class="key keypos-33">
<rect rx="6" ry="6" x="-28" y="-26" width="56" height="52" class="key"/>
<text x="0" y="0" class="key tap">.</text>
</g>
<g transform="translate(660, 140)" class="key keypos-34">
<rect rx="6" ry="6" x="-28" y="-26" width="56" height="52" class="key"/>
<text x="0" y="0" class="key tap">/</text>
</g>
<g transform="translate(720, 140)" class="key keypos-35">
<rect rx="6" ry="6" x="-28" y="-26" width="56" height="52" class="key"/>
<text x="0" y="0" class="key tap">&#x27;</text>
</g>
<g transform="translate(210, 196)" class="key keypos-36">
<rect rx="6" ry="6" x="-28" y="-26" width="56" height="52" class="key"/>
<text x="0" y="0" class="key tap">
<tspan x="0" dy="-1.2em" style="font-size: 88%">LGUI(</tspan><tspan x="0" dy="1.2em" style="font-size: 88%">KC_SPACE</tspan><tspan x="0" dy="1.2em" style="font-size: 88%">)</tspan>
</text>
<text x="0" y="24" class="key hold">⌥</text>
</g>
<g transform="translate(270, 196)" class="key keypos-37">
<rect rx="6" ry="6" x="-28" y="-26" width="56" height="52" class="key"/>
<text x="0" y="0" class="key tap">⌘</text>
</g>
<g transform="translate(330, 196)" class="key keypos-38">
<rect rx="6" ry="6" x="-28" y="-26" width="56" height="52" class="key"/>
<text x="0" y="0" class="key tap">␣</text>
<a href="#Lower">
<text x="0" y="24" class="key hold layer-activator">Lower</text>
</a></g>
<g transform="translate(420, 196)" class="key keypos-39">
<rect rx="6" ry="6" x="-28" y="-26" width="56" height="52" class="key"/>
<text x="0" y="0" class="key tap">⏎</text>
<text x="0" y="24" class="key hold">⌥</text>
</g>
<g transform="translate(480, 196)" class="key layer keypos-40">
<rect rx="6" ry="6" x="-28" y="-26" width="56" height="52" class="key layer"/>
<a href="#Raise">
<text x="0" y="0" class="key layer tap layer-activator">Raise</text>
</a></g>
<g transform="translate(540, 196)" class="key keypos-41">
<rect rx="6" ry="6" x="-28" y="-26" width="56" height="52" class="key"/>
<text x="0" y="0" class="key tap">⌫</text>
<text x="0" y="24" class="key hold">⌃</text>
</g>
<g class="combo combopos-0">
<rect rx="6" ry="6" x="436" y="15" width="28" height="26" class="combo"/>
<text x="450" y="28" class="combo tap">)</text>
</g>
<g class="combo combopos-1">
<rect rx="6" ry="6" x="286" y="15" width="28" height="26" class="combo"/>
<text x="300" y="28" class="combo tap">(</text>
</g>
<g class="combo combopos-2">
<rect rx="6" ry="6" x="226" y="183" width="28" height="26" class="combo"/>
<text x="240" y="196" class="combo tap">⌃</text>
</g>
<g class="combo combopos-3">
<rect rx="6" ry="6" x="46" y="15" width="28" height="26" class="combo"/>
<text x="60" y="28" class="combo tap">`</text>
</g>
<g class="combo combopos-4">
<rect rx="6" ry="6" x="436" y="71" width="28" height="26" class="combo"/>
<text x="450" y="84" class="combo tap">}</text>
</g>
<g class="combo combopos-5">
<rect rx="6" ry="6" x="286" y="71" width="28" height="26" class="combo"/>
<text x="300" y="84" class="combo tap">{</text>
</g>
<g class="combo combopos-6">
<rect rx="6" ry="6" x="436" y="127" width="28" height="26" class="combo"/>
<text x="450" y="140" class="combo tap">&gt;</text>
</g>
<g class="combo combopos-7">
<rect rx="6" ry="6" x="286" y="127" width="28" height="26" class="combo"/>
<text x="300" y="140" class="combo tap">&lt;</text>
</g>
<g class="combo combopos-8">
<path d="M480,28 l-40,0" class="combo"/>
<path d="M480,28 l40,0" class="combo"/>
<rect rx="6" ry="6" x="466" y="15" width="28" height="26" class="combo"/>
<text x="480" y="28" class="combo tap">]</text>
</g>
<g class="combo combopos-9">
<path d="M270,28 l-40,0" class="combo"/>
<path d="M270,28 l40,0" class="combo"/>
<rect rx="6" ry="6" x="256" y="15" width="28" height="26" class="combo"/>
<text x="270" y="28" class="combo tap">[</text>
</g>
</g>
</g>
<g transform="translate(30, 280)" class="layer-Lower">
<text x="0" y="28" class="label" id="Lower">Lower:</text>
<g transform="translate(0, 56)">
<g transform="translate(30, 28)" class="key keypos-0">
<rect rx="6" ry="6" x="-28" y="-26" width="56" height="52" class="key"/>
<text x="0" y="0" class="key tap">▽</text>
</g>
<g transform="translate(90, 28)" class="key keypos-1">
<rect rx="6" ry="6" x="-28" y="-26" width="56" height="52" class="key"/>
<text x="0" y="0" class="key tap">!</text>
</g>
<g transform="translate(150, 28)" class="key keypos-2">
<rect rx="6" ry="6" x="-28" y="-26" width="56" height="52" class="key"/>
<text x="0" y="0" class="key tap">@</text>
</g>
<g transform="translate(210, 28)" class="key keypos-3">
<rect rx="6" ry="6" x="-28" y="-26" width="56" height="52" class="key"/>
<text x="0" y="0" class="key tap">#</text>
</g>
<g transform="translate(270, 28)" class="key keypos-4">
<rect rx="6" ry="6" x="-28" y="-26" width="56" height="52" class="key"/>
<text x="0" y="0" class="key tap">$</text>
</g>
<g transform="translate(330, 28)" class="key keypos-5">
<rect rx="6" ry="6" x="-28" y="-26" width="56" height="52" class="key"/>
<text x="0" y="0" class="key tap">%</text>
</g>
<g transform="translate(420, 28)" class="key keypos-6">
<rect rx="6" ry="6" x="-28" y="-26" width="56" height="52" class="key"/>
<text x="0" y="0" class="key tap">^</text>
</g>
<g transform="translate(480, 28)" class="key keypos-7">
<rect rx="6" ry="6" x="-28" y="-26" width="56" height="52" class="key"/>
<text x="0" y="0" class="key tap">&amp;</text>
</g>
<g transform="translate(540, 28)" class="key keypos-8">
<rect rx="6" ry="6" x="-28" y="-26" width="56" height="52" class="key"/>
<text x="0" y="0" class="key tap">*</text>
</g>
<g transform="translate(600, 28)" class="key keypos-9">
<rect rx="6" ry="6" x="-28" y="-26" width="56" height="52" class="key"/>
<text x="0" y="0" class="key tap">/</text>
</g>
<g transform="translate(660, 28)" class="key keypos-10">
<rect rx="6" ry="6" x="-28" y="-26" width="56" height="52" class="key"/>
<text x="0" y="0" class="key tap">;</text>
</g>
<g transform="translate(720, 28)" class="key keypos-11">
<rect rx="6" ry="6" x="-28" y="-26" width="56" height="52" class="key"/>
<text x="0" y="0" class="key tap">RuEn</text>
<text x="0" y="-24" class="key shifted">Mac</text>
</g>
<g transform="translate(30, 84)" class="key keypos-12">
<rect rx="6" ry="6" x="-28" y="-26" width="56" height="52" class="key"/>
<text x="0" y="0" class="key tap">▽</text>
</g>
<g transform="translate(90, 84)" class="key keypos-13">
<rect rx="6" ry="6" x="-28" y="-26" width="56" height="52" class="key"/>
<text x="0" y="0" class="key tap">▽</text>
</g>
<g transform="translate(150, 84)" class="key keypos-14">
<rect rx="6" ry="6" x="-28" y="-26" width="56" height="52" class="key"/>
<text x="0" y="0" class="key tap">▽</text>
</g>
<g transform="translate(210, 84)" class="key keypos-15">
<rect rx="6" ry="6" x="-28" y="-26" width="56" height="52" class="key"/>
<text x="0" y="0" class="key tap">▽</text>
</g>
<g transform="translate(270, 84)" class="key keypos-16">
<rect rx="6" ry="6" x="-28" y="-26" width="56" height="52" class="key"/>
<text x="0" y="0" class="key tap">▽</text>
</g>
<g transform="translate(330, 84)" class="key keypos-17">
<rect rx="6" ry="6" x="-28" y="-26" width="56" height="52" class="key"/>
</g>
<g transform="translate(420, 84)" class="key keypos-18">
<rect rx="6" ry="6" x="-28" y="-26" width="56" height="52" class="key"/>
<text x="0" y="0" class="key tap">-</text>
</g>
<g transform="translate(480, 84)" class="key keypos-19">
<rect rx="6" ry="6" x="-28" y="-26" width="56" height="52" class="key"/>
<text x="0" y="0" class="key tap">KP_PLUS</text>
<text x="0" y="24" class="key hold">⇧</text>
</g>
<g transform="translate(540, 84)" class="key keypos-20">
<rect rx="6" ry="6" x="-28" y="-26" width="56" height="52" class="key"/>
<text x="0" y="0" class="key tap">EQUAL</text>
<text x="0" y="24" class="key hold">⌘</text>
</g>
<g transform="translate(600, 84)" class="key keypos-21">
<rect rx="6" ry="6" x="-28" y="-26" width="56" height="52" class="key"/>
<text x="0" y="24" class="key hold">⌥</text>
</g>
<g transform="translate(660, 84)" class="key keypos-22">
<rect rx="6" ry="6" x="-28" y="-26" width="56" height="52" class="key"/>
<text x="0" y="0" class="key tap">:</text>
</g>
<g transform="translate(720, 84)" class="key keypos-23">
<rect rx="6" ry="6" x="-28" y="-26" width="56" height="52" class="key"/>
<text x="0" y="0" class="key tap">RuEn</text>
<text x="0" y="-24" class="key shifted">sync</text>
</g>
<g transform="translate(30, 140)" class="key keypos-24">
<rect rx="6" ry="6" x="-28" y="-26" width="56" height="52" class="key"/>
<text x="0" y="0" class="key tap">▽</text>
</g>
<g transform="translate(90, 140)" class="key keypos-25">
<rect rx="6" ry="6" x="-28" y="-26" width="56" height="52" class="key"/>
</g>
<g transform="translate(150, 140)" class="key keypos-26">
<rect rx="6" ry="6" x="-28" y="-26" width="56" height="52" class="key"/>
</g>
<g transform="translate(210, 140)" class="key keypos-27">
<rect rx="6" ry="6" x="-28" y="-26" width="56" height="52" class="key"/>
</g>
<g transform="translate(270, 140)" class="key keypos-28">
<rect rx="6" ry="6" x="-28" y="-26" width="56" height="52" class="key"/>
</g>
<g transform="translate(330, 140)" class="key keypos-29">
<rect rx="6" ry="6" x="-28" y="-26" width="56" height="52" class="key"/>
<text x="0" y="0" class="key tap">\</text>
</g>
<g transform="translate(420, 140)" class="key keypos-30">
<rect rx="6" ry="6" x="-28" y="-26" width="56" height="52" class="key"/>
<text x="0" y="0" class="key tap">_</text>
</g>
<g transform="translate(480, 140)" class="key keypos-31">
<rect rx="6" ry="6" x="-28" y="-26" width="56" height="52" class="key"/>
</g>
<g transform="translate(540, 140)" class="key keypos-32">
<rect rx="6" ry="6" x="-28" y="-26" width="56" height="52" class="key"/>
<text x="0" y="0" class="key tap">,</text>
</g>
<g transform="translate(600, 140)" class="key keypos-33">
<rect rx="6" ry="6" x="-28" y="-26" width="56" height="52" class="key"/>
<text x="0" y="0" class="key tap">.</text>
</g>
<g transform="translate(660, 140)" class="key keypos-34">
<rect rx="6" ry="6" x="-28" y="-26" width="56" height="52" class="key"/>
<text x="0" y="0" class="key tap">?</text>
</g>
<g transform="translate(720, 140)" class="key keypos-35">
<rect rx="6" ry="6" x="-28" y="-26" width="56" height="52" class="key"/>
</g>
<g transform="translate(210, 196)" class="key keypos-36">
<rect rx="6" ry="6" x="-28" y="-26" width="56" height="52" class="key"/>
<text x="0" y="0" class="key tap">▽</text>
</g>
<g transform="translate(270, 196)" class="key keypos-37">
<rect rx="6" ry="6" x="-28" y="-26" width="56" height="52" class="key"/>
<text x="0" y="0" class="key tap">▽</text>
</g>
<g transform="translate(330, 196)" class="key keypos-38">
<rect rx="6" ry="6" x="-28" y="-26" width="56" height="52" class="key"/>
<text x="0" y="0" class="key tap">▽</text>
</g>
<g transform="translate(420, 196)" class="key keypos-39">
<rect rx="6" ry="6" x="-28" y="-26" width="56" height="52" class="key"/>
<text x="0" y="0" class="key tap">▽</text>
</g>
<g transform="translate(480, 196)" class="key layer keypos-40">
<rect rx="6" ry="6" x="-28" y="-26" width="56" height="52" class="key layer"/>
<a href="#Adjust">
<text x="0" y="0" class="key layer tap layer-activator">Adjust</text>
</a></g>
<g transform="translate(540, 196)" class="key keypos-41">
<rect rx="6" ry="6" x="-28" y="-26" width="56" height="52" class="key"/>
<text x="0" y="0" class="key tap">▽</text>
</g>
</g>
</g>
<g transform="translate(30, 560)" class="layer-Raise">
<text x="0" y="28" class="label" id="Raise">Raise:</text>
<g transform="translate(0, 56)">
<g transform="translate(30, 28)" class="key keypos-0">
<rect rx="6" ry="6" x="-28" y="-26" width="56" height="52" class="key"/>
<text x="0" y="0" class="key tap">▽</text>
</g>
<g transform="translate(90, 28)" class="key keypos-1">
<rect rx="6" ry="6" x="-28" y="-26" width="56" height="52" class="key"/>
<text x="0" y="0" class="key tap">1</text>
</g>
<g transform="translate(150, 28)" class="key keypos-2">
<rect rx="6" ry="6" x="-28" y="-26" width="56" height="52" class="key"/>
<text x="0" y="0" class="key tap">2</text>
</g>
<g transform="translate(210, 28)" class="key keypos-3">
<rect rx="6" ry="6" x="-28" y="-26" width="56" height="52" class="key"/>
<text x="0" y="0" class="key tap">3</text>
</g>
<g transform="translate(270, 28)" class="key keypos-4">
<rect rx="6" ry="6" x="-28" y="-26" width="56" height="52" class="key"/>
<text x="0" y="0" class="key tap">4</text>
</g>
<g transform="translate(330, 28)" class="key keypos-5">
<rect rx="6" ry="6" x="-28" y="-26" width="56" height="52" class="key"/>
<text x="0" y="0" class="key tap">5</text>
</g>
<g transform="translate(420, 28)" class="key keypos-6">
<rect rx="6" ry="6" x="-28" y="-26" width="56" height="52" class="key"/>
<text x="0" y="0" class="key tap">6</text>
</g>
<g transform="translate(480, 28)" class="key keypos-7">
<rect rx="6" ry="6" x="-28" y="-26" width="56" height="52" class="key"/>
<text x="0" y="0" class="key tap">7</text>
</g>
<g transform="translate(540, 28)" class="key keypos-8">
<rect rx="6" ry="6" x="-28" y="-26" width="56" height="52" class="key"/>
<text x="0" y="0" class="key tap">8</text>
</g>
<g transform="translate(600, 28)" class="key keypos-9">
<rect rx="6" ry="6" x="-28" y="-26" width="56" height="52" class="key"/>
<text x="0" y="0" class="key tap">9</text>
</g>
<g transform="translate(660, 28)" class="key keypos-10">
<rect rx="6" ry="6" x="-28" y="-26" width="56" height="52" class="key"/>
<text x="0" y="0" class="key tap">0</text>
</g>
<g transform="translate(720, 28)" class="key keypos-11">
<rect rx="6" ry="6" x="-28" y="-26" width="56" height="52" class="key"/>
</g>
<g transform="translate(30, 84)" class="key keypos-12">
<rect rx="6" ry="6" x="-28" y="-26" width="56" height="52" class="key"/>
<text x="0" y="0" class="key tap">▽</text>
</g>
<g transform="translate(90, 84)" class="key keypos-13">
<rect rx="6" ry="6" x="-28" y="-26" width="56" height="52" class="key"/>
<text x="0" y="0" class="key tap">▽</text>
</g>
<g transform="translate(150, 84)" class="key keypos-14">
<rect rx="6" ry="6" x="-28" y="-26" width="56" height="52" class="key"/>
<text x="0" y="0" class="key tap">▽</text>
</g>
<g transform="translate(210, 84)" class="key keypos-15">
<rect rx="6" ry="6" x="-28" y="-26" width="56" height="52" class="key"/>
<text x="0" y="0" class="key tap">▽</text>
</g>
<g transform="translate(270, 84)" class="key keypos-16">
<rect rx="6" ry="6" x="-28" y="-26" width="56" height="52" class="key"/>
<text x="0" y="0" class="key tap">▽</text>
</g>
<g transform="translate(330, 84)" class="key keypos-17">
<rect rx="6" ry="6" x="-28" y="-26" width="56" height="52" class="key"/>
</g>
<g transform="translate(420, 84)" class="key keypos-18">
<rect rx="6" ry="6" x="-28" y="-26" width="56" height="52" class="key"/>
<text x="0" y="0" class="key tap">←</text>
</g>
<g transform="translate(480, 84)" class="key keypos-19">
<rect rx="6" ry="6" x="-28" y="-26" width="56" height="52" class="key"/>
<text x="0" y="0" class="key tap">↓</text>
<text x="0" y="24" class="key hold">⇧</text>
</g>
<g transform="translate(540, 84)" class="key keypos-20">
<rect rx="6" ry="6" x="-28" y="-26" width="56" height="52" class="key"/>
<text x="0" y="0" class="key tap">↑</text>
<text x="0" y="24" class="key hold">⌘</text>
</g>
<g transform="translate(600, 84)" class="key keypos-21">
<rect rx="6" ry="6" x="-28" y="-26" width="56" height="52" class="key"/>
<text x="0" y="0" class="key tap">→</text>
<text x="0" y="24" class="key hold">⌥</text>
</g>
<g transform="translate(660, 84)" class="key keypos-22">
<rect rx="6" ry="6" x="-28" y="-26" width="56" height="52" class="key"/>
<text x="0" y="24" class="key hold">⌃</text>
</g>
<g transform="translate(720, 84)" class="key keypos-23">
<rect rx="6" ry="6" x="-28" y="-26" width="56" height="52" class="key"/>
</g>
<g transform="translate(30, 140)" class="key keypos-24">
<rect rx="6" ry="6" x="-28" y="-26" width="56" height="52" class="key"/>
<text x="0" y="0" class="key tap">▽</text>
</g>
<g transform="translate(90, 140)" class="key keypos-25">
<rect rx="6" ry="6" x="-28" y="-26" width="56" height="52" class="key"/>
</g>
<g transform="translate(150, 140)" class="key keypos-26">
<rect rx="6" ry="6" x="-28" y="-26" width="56" height="52" class="key"/>
</g>
<g transform="translate(210, 140)" class="key keypos-27">
<rect rx="6" ry="6" x="-28" y="-26" width="56" height="52" class="key"/>
</g>
<g transform="translate(270, 140)" class="key keypos-28">
<rect rx="6" ry="6" x="-28" y="-26" width="56" height="52" class="key"/>
</g>
<g transform="translate(330, 140)" class="key keypos-29">
<rect rx="6" ry="6" x="-28" y="-26" width="56" height="52" class="key"/>
</g>
<g transform="translate(420, 140)" class="key keypos-30">
<rect rx="6" ry="6" x="-28" y="-26" width="56" height="52" class="key"/>
</g>
<g transform="translate(480, 140)" class="key keypos-31">
<rect rx="6" ry="6" x="-28" y="-26" width="56" height="52" class="key"/>
</g>
<g transform="translate(540, 140)" class="key keypos-32">
<rect rx="6" ry="6" x="-28" y="-26" width="56" height="52" class="key"/>
</g>
<g transform="translate(600, 140)" class="key keypos-33">
<rect rx="6" ry="6" x="-28" y="-26" width="56" height="52" class="key"/>
</g>
<g transform="translate(660, 140)" class="key keypos-34">
<rect rx="6" ry="6" x="-28" y="-26" width="56" height="52" class="key"/>
</g>
<g transform="translate(720, 140)" class="key keypos-35">
<rect rx="6" ry="6" x="-28" y="-26" width="56" height="52" class="key"/>
</g>
<g transform="translate(210, 196)" class="key keypos-36">
<rect rx="6" ry="6" x="-28" y="-26" width="56" height="52" class="key"/>
<text x="0" y="0" class="key tap">▽</text>
</g>
<g transform="translate(270, 196)" class="key keypos-37">
<rect rx="6" ry="6" x="-28" y="-26" width="56" height="52" class="key"/>
<text x="0" y="0" class="key tap">▽</text>
</g>
<g transform="translate(330, 196)" class="key layer keypos-38">
<rect rx="6" ry="6" x="-28" y="-26" width="56" height="52" class="key layer"/>
<a href="#Adjust">
<text x="0" y="0" class="key layer tap layer-activator">Adjust</text>
</a></g>
<g transform="translate(420, 196)" class="key keypos-39">
<rect rx="6" ry="6" x="-28" y="-26" width="56" height="52" class="key"/>
<text x="0" y="0" class="key tap">▽</text>
</g>
<g transform="translate(480, 196)" class="key keypos-40">
<rect rx="6" ry="6" x="-28" y="-26" width="56" height="52" class="key"/>
<text x="0" y="0" class="key tap">▽</text>
</g>
<g transform="translate(540, 196)" class="key keypos-41">
<rect rx="6" ry="6" x="-28" y="-26" width="56" height="52" class="key"/>
<text x="0" y="0" class="key tap">▽</text>
</g>
</g>
</g>
<g transform="translate(30, 840)" class="layer-Adjust">
<text x="0" y="28" class="label" id="Adjust">Adjust:</text>
<g transform="translate(0, 56)">
<g transform="translate(30, 28)" class="key keypos-0">
<rect rx="6" ry="6" x="-28" y="-26" width="56" height="52" class="key"/>
<text x="0" y="0" class="key tap">F1</text>
</g>
<g transform="translate(90, 28)" class="key keypos-1">
<rect rx="6" ry="6" x="-28" y="-26" width="56" height="52" class="key"/>
<text x="0" y="0" class="key tap">F2</text>
</g>
<g transform="translate(150, 28)" class="key keypos-2">
<rect rx="6" ry="6" x="-28" y="-26" width="56" height="52" class="key"/>
<text x="0" y="0" class="key tap">F3</text>
</g>
<g transform="translate(210, 28)" class="key keypos-3">
<rect rx="6" ry="6" x="-28" y="-26" width="56" height="52" class="key"/>
<text x="0" y="0" class="key tap">F4</text>
</g>
<g transform="translate(270, 28)" class="key keypos-4">
<rect rx="6" ry="6" x="-28" y="-26" width="56" height="52" class="key"/>
<text x="0" y="0" class="key tap">F5</text>
</g>
<g transform="translate(330, 28)" class="key keypos-5">
<rect rx="6" ry="6" x="-28" y="-26" width="56" height="52" class="key"/>
<text x="0" y="0" class="key tap">F6</text>
</g>
<g transform="translate(420, 28)" class="key keypos-6">
<rect rx="6" ry="6" x="-28" y="-26" width="56" height="52" class="key"/>
<text x="0" y="0" class="key tap">F7</text>
</g>
<g transform="translate(480, 28)" class="key keypos-7">
<rect rx="6" ry="6" x="-28" y="-26" width="56" height="52" class="key"/>
<text x="0" y="0" class="key tap">F8</text>
</g>
<g transform="translate(540, 28)" class="key keypos-8">
<rect rx="6" ry="6" x="-28" y="-26" width="56" height="52" class="key"/>
<text x="0" y="0" class="key tap">F9</text>
</g>
<g transform="translate(600, 28)" class="key keypos-9">
<rect rx="6" ry="6" x="-28" y="-26" width="56" height="52" class="key"/>
<text x="0" y="0" class="key tap">F10</text>
</g>
<g transform="translate(660, 28)" class="key keypos-10">
<rect rx="6" ry="6" x="-28" y="-26" width="56" height="52" class="key"/>
<text x="0" y="0" class="key tap">F11</text>
</g>
<g transform="translate(720, 28)" class="key keypos-11">
<rect rx="6" ry="6" x="-28" y="-26" width="56" height="52" class="key"/>
<text x="0" y="0" class="key tap">F12</text>
</g>
<g transform="translate(30, 84)" class="key keypos-12">
<rect rx="6" ry="6" x="-28" y="-26" width="56" height="52" class="key"/>
<text x="0" y="0" class="key tap">▽</text>
</g>
<g transform="translate(90, 84)" class="key keypos-13">
<rect rx="6" ry="6" x="-28" y="-26" width="56" height="52" class="key"/>
</g>
<g transform="translate(150, 84)" class="key keypos-14">
<rect rx="6" ry="6" x="-28" y="-26" width="56" height="52" class="key"/>
</g>
<g transform="translate(210, 84)" class="key keypos-15">
<rect rx="6" ry="6" x="-28" y="-26" width="56" height="52" class="key"/>
<text x="0" y="0" class="key tap">⇧⌘3</text>
</g>
<g transform="translate(270, 84)" class="key keypos-16">
<rect rx="6" ry="6" x="-28" y="-26" width="56" height="52" class="key"/>
<text x="0" y="0" class="key tap">⇧⌘4</text>
</g>
<g transform="translate(330, 84)" class="key keypos-17">
<rect rx="6" ry="6" x="-28" y="-26" width="56" height="52" class="key"/>
</g>
<g transform="translate(420, 84)" class="key keypos-18">
<rect rx="6" ry="6" x="-28" y="-26" width="56" height="52" class="key"/>
<text x="0" y="0" class="key tap">▽</text>
</g>
<g transform="translate(480, 84)" class="key keypos-19">
<rect rx="6" ry="6" x="-28" y="-26" width="56" height="52" class="key"/>
<text x="0" y="0" class="key tap">Vol-</text>
</g>
<g transform="translate(540, 84)" class="key keypos-20">
<rect rx="6" ry="6" x="-28" y="-26" width="56" height="52" class="key"/>
<text x="0" y="0" class="key tap">Mute</text>
</g>
<g transform="translate(600, 84)" class="key keypos-21">
<rect rx="6" ry="6" x="-28" y="-26" width="56" height="52" class="key"/>
<text x="0" y="0" class="key tap">Vol+</text>
</g>
<g transform="translate(660, 84)" class="key keypos-22">
<rect rx="6" ry="6" x="-28" y="-26" width="56" height="52" class="key"/>
</g>
<g transform="translate(720, 84)" class="key keypos-23">
<rect rx="6" ry="6" x="-28" y="-26" width="56" height="52" class="key"/>
<text x="0" y="0" class="key tap">▽</text>
</g>
<g transform="translate(30, 140)" class="key keypos-24">
<rect rx="6" ry="6" x="-28" y="-26" width="56" height="52" class="key"/>
<text x="0" y="0" class="key tap">▽</text>
</g>
<g transform="translate(90, 140)" class="key keypos-25">
<rect rx="6" ry="6" x="-28" y="-26" width="56" height="52" class="key"/>
</g>
<g transform="translate(150, 140)" class="key keypos-26">
<rect rx="6" ry="6" x="-28" y="-26" width="56" height="52" class="key"/>
</g>
<g transform="translate(210, 140)" class="key keypos-27">
<rect rx="6" ry="6" x="-28" y="-26" width="56" height="52" class="key"/>
</g>
<g transform="translate(270, 140)" class="key keypos-28">
<rect rx="6" ry="6" x="-28" y="-26" width="56" height="52" class="key"/>
</g>
<g transform="translate(330, 140)" class="key keypos-29">
<rect rx="6" ry="6" x="-28" y="-26" width="56" height="52" class="key"/>
<text x="0" y="0" class="key tap">⇧⌘6</text>
</g>
<g transform="translate(420, 140)" class="key keypos-30">
<rect rx="6" ry="6" x="-28" y="-26" width="56" height="52" class="key"/>
<text x="0" y="0" class="key tap">▽</text>
</g>
<g transform="translate(480, 140)" class="key keypos-31">
<rect rx="6" ry="6" x="-28" y="-26" width="56" height="52" class="key"/>
<text x="0" y="0" class="key tap">Prev</text>
</g>
<g transform="translate(540, 140)" class="key keypos-32">
<rect rx="6" ry="6" x="-28" y="-26" width="56" height="52" class="key"/>
<text x="0" y="0" class="key tap">Play</text>
</g>
<g transform="translate(600, 140)" class="key keypos-33">
<rect rx="6" ry="6" x="-28" y="-26" width="56" height="52" class="key"/>
<text x="0" y="0" class="key tap">▽</text>
</g>
<g transform="translate(660, 140)" class="key keypos-34">
<rect rx="6" ry="6" x="-28" y="-26" width="56" height="52" class="key"/>
<text x="0" y="0" class="key tap">Next</text>
</g>
<g transform="translate(720, 140)" class="key keypos-35">
<rect rx="6" ry="6" x="-28" y="-26" width="56" height="52" class="key"/>
<text x="0" y="0" class="key tap">▽</text>
</g>
<g transform="translate(210, 196)" class="key keypos-36">
<rect rx="6" ry="6" x="-28" y="-26" width="56" height="52" class="key"/>
<text x="0" y="0" class="key tap">▽</text>
</g>
<g transform="translate(270, 196)" class="key keypos-37">
<rect rx="6" ry="6" x="-28" y="-26" width="56" height="52" class="key"/>
<text x="0" y="0" class="key tap">▽</text>
</g>
<g transform="translate(330, 196)" class="key keypos-38">
<rect rx="6" ry="6" x="-28" y="-26" width="56" height="52" class="key"/>
<text x="0" y="0" class="key tap">▽</text>
</g>
<g transform="translate(420, 196)" class="key keypos-39">
<rect rx="6" ry="6" x="-28" y="-26" width="56" height="52" class="key"/>
<text x="0" y="0" class="key tap">▽</text>
</g>
<g transform="translate(480, 196)" class="key keypos-40">
<rect rx="6" ry="6" x="-28" y="-26" width="56" height="52" class="key"/>
<text x="0" y="0" class="key tap">▽</text>
</g>
<g transform="translate(540, 196)" class="key keypos-41">
<rect rx="6" ry="6" x="-28" y="-26" width="56" height="52" class="key"/>
<text x="0" y="0" class="key tap">▽</text>
</g>
</g>
</g>
</svg>
